<?xml version="1.0" encoding="UTF-8"?>
<svg id="Layer_1" data-name="Layer 1" xmlns="http://www.w3.org/2000/svg" viewBox="0 0 506.29 520">
  <defs>
    <style>
      .cls-1 {
        fill: #000;
        stroke-width: 0px;
      }
    </style>
  </defs>
  <polygon class="cls-1" points="206.7 143.06 253.15 109.29 299.59 143.06 281.85 88.41 328.3 54.64 270.89 54.64 253.15 0 235.4 54.64 177.99 54.64 224.44 88.41 206.7 143.06"/>
  <polygon class="cls-1" points="208 153.1 208 240.92 77.8 314.48 117 368.28 164.6 411.95 222 271.26 222 143.63 208 153.1"/>
  <polygon class="cls-1" points="50 233.11 30.15 218.79 21.85 173.53 2 217.87 2 252.97 50 289.92 50 233.11"/>
  <polygon class="cls-1" points="96.94 368 56.97 315.13 0 270.07 20.67 342.25 69.37 368 96.94 368"/>
  <polygon class="cls-1" points="52.35 214.71 62 175.17 62 111.48 41.79 129.65 31.91 151.72 40.87 207.36 52.35 214.71"/>
  <polygon class="cls-1" points="95.13 81 74 100 74 152.26 125 81 95.13 81"/>
  <polygon class="cls-1" points="115.78 436.32 84.54 446.9 117.61 477.7 177.8 496.55 189.29 472.18 225.12 447.82 115.78 436.32"/>
  <polygon class="cls-1" points="326.68 427.49 272 271.2 272 133.55 253 120.49 234 133.55 234 271.2 179.32 427.49 253 435.84 326.68 427.49"/>
  <polygon class="cls-1" points="155.29 426.08 113.48 387 71.21 387 27.57 366.77 37.67 403.09 68.46 432.06 104.29 420.56 155.29 426.08"/>
  <polygon class="cls-1" points="457 289.92 505 252.97 505 217.87 485.15 173.53 476.85 218.79 457 233.11 457 289.92"/>
  <polygon class="cls-1" points="466.13 207.36 475.09 151.72 465.21 129.66 445 111.48 445 175.17 454.65 214.71 466.13 207.36"/>
  <polygon class="cls-1" points="432 100 410.87 81 381 81 432 152.26 432 100"/>
  <polygon class="cls-1" points="390 368.28 429.2 314.48 299 240.92 299 153.1 285 143.63 285 271.26 342.4 411.95 390 368.28"/>
  <polygon class="cls-1" points="264.49 450.11 253 451.03 241.51 450.11 211.65 474.48 206.14 507.13 253 520 299.86 507.13 294.35 474.48 264.49 450.11"/>
  <polygon class="cls-1" points="449.32 315.13 409.35 368 436.92 368 485.62 342.25 506.29 270.07 449.32 315.13"/>
  <polygon class="cls-1" points="392.81 387 351 426.08 402 420.56 437.84 432.06 468.62 403.09 478.73 366.77 435.08 387 392.81 387"/>
  <polygon class="cls-1" points="281.17 447.82 317.01 472.18 328.49 496.55 388.68 477.7 421.76 446.9 390.52 436.32 281.17 447.82"/>
</svg>