<?xml version="1.0" encoding="utf-8"?>
<!-- Generator: Adobe Illustrator 24.1.2, SVG Export Plug-In . SVG Version: 6.00 Build 0)  -->
<svg version="1.1" id="Content" xmlns="http://www.w3.org/2000/svg" xmlns:xlink="http://www.w3.org/1999/xlink" x="0px" y="0px"
	 viewBox="0 0 1080 1080" style="enable-background:new 0 0 1080 1080;" xml:space="preserve">
<style type="text/css">
	.st0{display:none;}
</style>
<g>
	<path class="st0" d="M717,753.4V560.3c0-0.3,0-0.7-0.1-1c0-0.1,0-0.2,0-0.2c-0.1-0.6-0.2-1.1-0.4-1.6c0-0.1-0.1-0.3-0.1-0.4
		c-0.2-0.5-0.4-1.1-0.7-1.6c0,0,0,0,0,0c0,0,0,0,0,0c-0.3-0.5-0.6-1-1-1.4c-0.1-0.1-0.2-0.2-0.3-0.3c-0.4-0.4-0.8-0.8-1.2-1.1
		c-0.1-0.1-0.1-0.1-0.2-0.1c-0.3-0.2-0.5-0.4-0.8-0.6l-167.2-96.6c-3-1.7-6.7-1.7-9.8,0l-167.2,96.6c-0.3,0.2-0.6,0.4-0.8,0.6
		c-0.1,0.1-0.2,0.1-0.2,0.1c-0.4,0.3-0.8,0.7-1.2,1.1c-0.1,0.1-0.2,0.2-0.3,0.3c-0.4,0.4-0.7,0.9-1,1.4c0,0,0,0,0,0c0,0,0,0,0,0
		c-0.3,0.5-0.5,1-0.7,1.6c-0.1,0.1-0.1,0.3-0.1,0.4c-0.2,0.5-0.3,1.1-0.4,1.6c0,0.1,0,0.2,0,0.2c0,0.3-0.1,0.7-0.1,1v193.1
		c0,3.5,1.9,6.7,4.9,8.4l167.2,96.6c0.3,0.2,0.6,0.3,0.9,0.4c0.1,0,0.1,0.1,0.2,0.1c0.5,0.2,1,0.4,1.6,0.5c0.1,0,0.3,0.1,0.4,0.1
		c0.6,0.1,1.2,0.2,1.7,0.2s1.2-0.1,1.7-0.2c0.1,0,0.3-0.1,0.4-0.1c0.5-0.1,1.1-0.3,1.6-0.5c0.1,0,0.1-0.1,0.2-0.1
		c0.3-0.1,0.6-0.3,0.9-0.4l167.2-96.6C715.1,760.1,717,756.9,717,753.4z"/>
	<path d="M474.7,882l-162.4-93.7V600.8c0-4.4-3-8.3-7.2-9.4c-4.3-1.1-8.8,0.7-11,4.5L126.9,885.6c-1.7,3-1.7,6.7,0,9.8
		c1.7,3,5,4.9,8.4,4.9h334.5c4.4,0,8.3-3,9.4-7.2C480.3,888.7,478.5,884.2,474.7,882z"/>
	<path d="M377.6,487.6L540,393.9l162.4,93.7c1.5,0.9,3.2,1.3,4.9,1.3c2.5,0,5-1,6.9-2.9c3.1-3.1,3.8-7.9,1.6-11.8L548.4,184.7
		c-1.7-3-5-4.9-8.4-4.9s-6.7,1.9-8.4,4.9L364.3,474.3c-2.2,3.8-1.6,8.7,1.6,11.8C369,489.2,373.8,489.8,377.6,487.6z"/>
	<path d="M953.1,885.6L785.9,595.9c-2.2-3.8-6.7-5.7-11-4.5c-4.3,1.1-7.2,5-7.2,9.4v187.5L605.3,882c-3.8,2.2-5.7,6.7-4.5,11
		c1.1,4.3,5,7.2,9.4,7.2h334.5c3.5,0,6.7-1.9,8.4-4.9C954.9,892.3,954.9,888.6,953.1,885.6z"/>
</g>
<polyline points="364.8,555.6 539.2,454 714.5,555.1 715.2,758.1 672.1,733.2 671.9,580.6 540.1,503.6 407.1,580.1 "/>
<polyline points="715.2,758.1 540.8,859.7 365.6,758.8 364.8,555.6 407.9,580.6 408.1,733 540.1,810 672.9,733.5 "/>
<polygon points="634.2,711.3 634.2,602.5 539.9,548 445.7,602.5 445.7,711.3 539.9,765.6 "/>
</svg>
