<?xml version="1.0" encoding="utf-8"?>
<!-- Generator: Adobe Illustrator 24.1.2, SVG Export Plug-In . SVG Version: 6.00 Build 0)  -->
<svg version="1.1" id="Layer_1" xmlns="http://www.w3.org/2000/svg" xmlns:xlink="http://www.w3.org/1999/xlink" x="0px" y="0px"
 viewBox="0 0 506.3 520" style="enable-background:new 0 0 506.3 520;" xml:space="preserve">
<polygon points="212.3,152 253.1,122.4 294,152 278.4,104 319.2,74.3 268.7,74.3 253.1,26.3 237.5,74.3 187.1,74.3 227.9,104 "/>
<polygon points="213.5,160.9 213.5,238.1 99,302.7 133.5,350 175.3,388.4 225.8,264.7 225.8,152.5 "/>
<polygon points="74.6,231.2 57.1,218.6 49.8,178.8 32.4,217.8 32.4,248.6 74.6,281.1 "/>
<polygon points="115.8,349.7 80.7,303.3 30.6,263.7 48.8,327.1 91.6,349.7 "/>
<polygon points="76.7,215 85.1,180.3 85.1,124.3 67.4,140.3 58.7,159.7 66.6,208.6 "/>
<polygon points="114.3,97.5 95.7,114.2 95.7,160.1 140.5,97.5 "/>
<polygon points="132.4,409.8 105,419.1 134,446.2 186.9,462.7 197,441.3 228.5,419.9 "/>
<polygon points="317.8,402 269.7,264.7 269.7,143.7 253,132.2 236.3,143.7 236.3,264.7 188.3,402 253,409.4 "/>
<polygon points="167.1,400.8 130.4,366.4 93.2,366.4 54.9,348.7 63.8,380.6 90.8,406.1 122.3,395.9 "/>
<polygon points="432.3,281.1 474.5,248.6 474.5,217.8 457.1,178.8 449.8,218.6 432.3,231.2 "/>
<polygon points="440.3,208.6 448.2,159.7 439.5,140.3 421.8,124.3 421.8,180.3 430.3,215 "/>
<polygon points="410.3,114.2 391.8,97.5 365.5,97.5 410.3,160.1 "/>
<polygon points="373.4,350 407.9,302.7 293.4,238.1 293.4,160.9 281.1,152.5 281.1,264.7 331.6,388.4 "/>
<polygon points="263.1,421.9 253,422.7 242.9,421.9 216.7,443.3 211.8,472 253,483.3 294.2,472 289.4,443.3 "/>
<polygon points="425.6,303.3 390.4,349.7 414.7,349.7 457.5,327.1 475.6,263.7 "/>
<polygon points="375.9,366.4 339.2,400.8 384,395.9 415.5,406.1 442.5,380.6 451.4,348.7 413.1,366.4 "/>
<polygon points="277.8,419.9 309.3,441.3 319.4,462.7 372.3,446.2 401.3,419.1 373.9,409.8 "/>
</svg>

