<svg width="436" height="520" viewBox="0 0 436 520" fill="none" xmlns="http://www.w3.org/2000/svg">
<path fill-rule="evenodd" clip-rule="evenodd" d="M207.474 172.581C201.114 173.315 194.956 174.711 189.07 176.699C193.747 176.514 198.691 176.737 203.947 177.345C204.954 177.461 205.96 177.595 206.967 177.745C206.854 178.873 206.738 180.033 206.616 181.22C205.593 181.065 204.569 180.929 203.546 180.811C193.531 179.653 184.787 179.938 176.939 181.821L177.028 181.775C172.757 183.955 168.683 186.466 164.84 189.274C170.977 189.523 178.171 191.273 186.143 194.519C192.606 190.287 199.384 186.739 206.335 183.951C206.202 185.238 206.064 186.553 205.921 187.894C200.481 190.186 195.152 192.962 190.01 196.184C194.613 198.271 199.351 200.785 204.153 203.675C204.004 204.934 203.853 206.203 203.698 207.482C197.822 203.867 192.05 200.828 186.522 198.459C180.779 202.35 175.301 206.808 170.198 211.776L192.887 234.465C195.621 231.766 198.402 229.149 201.213 226.626C200.961 228.437 200.702 230.25 200.438 232.06C198.729 233.65 197.034 235.275 195.354 236.932L199.128 240.706C198.904 242.13 198.676 243.547 198.444 244.956L192.89 239.401C185.651 246.76 179.041 254.434 173.265 262.121C178.491 269.032 184.386 275.927 190.804 282.587C190.479 283.93 190.15 285.261 189.82 286.578C182.983 279.612 176.688 272.353 171.107 265.047C164.036 274.82 158.355 284.552 154.484 293.623L154.466 293.666C158.347 299.368 162.786 304.809 167.731 309.878L189.41 288.198C188.832 290.466 188.247 292.695 187.655 294.887L170.202 312.34C173.278 315.316 176.489 318.107 179.81 320.701C179.41 321.874 179.009 323.034 178.606 324.18C174.834 321.292 171.2 318.162 167.735 314.807L155.553 326.989C157.161 328.533 158.826 330.017 160.545 331.44C161.528 331.529 162.566 331.567 163.661 331.55C167.478 331.492 171.868 330.767 176.751 329.327C176.247 330.693 175.741 332.038 175.233 333.363C171.623 334.285 168.243 334.828 165.129 334.99C167.549 336.744 170.059 338.379 172.651 339.889C171.108 343.671 169.551 347.275 167.987 350.71C137.047 333.258 116.156 300.082 116.156 262.027C116.156 208.976 156.757 165.407 208.581 160.699C208.308 163.734 207.938 167.78 207.474 172.581ZM155.519 197.097C157.044 195.632 158.62 194.22 160.244 192.864L160.206 192.896C161.336 192.771 162.542 192.715 163.826 192.735C169.084 192.815 175.427 194.16 182.651 196.895C177.417 200.591 172.417 204.743 167.731 209.309L155.519 197.097ZM148.547 204.601C149.985 202.866 151.488 201.185 153.051 199.563L165.267 211.779C160.67 216.516 156.496 221.573 152.787 226.865C149.933 219.447 148.53 212.944 148.449 207.573C148.433 206.532 148.466 205.542 148.547 204.601ZM137.282 221.886C139.536 217.367 142.159 213.065 145.111 209.018L145.014 209.15C145.352 215.284 147.157 222.445 150.427 230.362C145.168 238.455 140.981 247.038 138.014 255.829C137.42 253.023 136.958 250.211 136.634 247.402C135.523 237.795 135.69 229.409 137.282 221.886ZM127.861 262.027C127.861 252.069 129.478 242.489 132.463 233.534C132.341 238.035 132.587 242.778 133.168 247.802C133.733 252.688 134.695 257.575 136.03 262.417C134.832 266.939 133.96 271.496 133.433 276.052C132.828 281.282 132.499 286.133 132.516 290.68C129.497 281.68 127.861 272.044 127.861 262.027ZM145.353 315.367C142.641 311.684 140.203 307.787 138.068 303.707C136.042 295.692 135.709 286.743 136.899 276.453C137.186 273.966 137.581 271.476 138.08 268.991C141.095 277.647 145.292 286.091 150.528 294.052C147.296 302.036 145.57 309.235 145.353 315.367ZM153.083 324.525C151.675 323.065 150.316 321.557 149.009 320.005C148.866 318.814 148.802 317.537 148.823 316.173C148.902 310.962 150.224 304.685 152.911 297.54C156.592 302.733 160.724 307.694 165.263 312.345L153.083 324.525ZM154.369 230.724C158.267 224.928 162.741 219.396 167.734 214.246L190.423 236.934C183.341 244.131 176.835 251.644 171.098 259.201C164.014 249.475 158.3 239.779 154.369 230.724ZM152.109 234.219C146.534 243.185 142.315 252.713 139.649 262.399C142.382 271.957 146.624 281.347 152.185 290.182C156.248 281.175 161.954 271.644 168.917 262.128C161.954 252.673 156.225 243.193 152.109 234.219Z" fill="black"/>
<path fill-rule="evenodd" clip-rule="evenodd" d="M319.654 262.027C319.654 300.082 298.762 333.258 267.822 350.71C266.259 347.275 264.702 343.671 263.158 339.889C265.921 338.28 268.591 336.528 271.157 334.643C267.872 334.519 264.281 333.964 260.428 332.977C259.922 331.651 259.418 330.306 258.916 328.94C263.818 330.389 268.223 331.118 272.053 331.177C273.38 331.197 274.625 331.137 275.789 331.002C277.363 329.68 278.89 328.306 280.369 326.881L268.327 314.839C264.81 318.263 261.116 321.455 257.28 324.396C256.876 323.25 256.474 322.091 256.073 320.918C259.46 318.27 262.73 315.417 265.86 312.371L248.073 294.585C247.483 292.395 246.9 290.168 246.324 287.902L268.325 309.903C273.299 304.776 277.757 299.271 281.646 293.503C277.744 284.434 272.043 274.713 264.96 264.957C259.333 272.365 252.967 279.731 246.045 286.797C245.714 285.479 245.385 284.149 245.058 282.805C251.561 276.045 257.525 269.045 262.796 262.033C257.015 254.363 250.405 246.709 243.17 239.372L237.397 245.145C237.165 243.737 236.936 242.32 236.712 240.896L240.703 236.905C238.929 235.158 237.137 233.447 235.33 231.776C235.068 229.973 234.811 228.167 234.56 226.362C237.468 228.958 240.343 231.654 243.17 234.438L265.859 211.749C260.734 206.769 255.231 202.303 249.463 198.408C243.881 200.818 238.054 203.909 232.124 207.582C231.969 206.302 231.817 205.031 231.668 203.77C236.524 200.827 241.317 198.266 245.973 196.141C240.772 192.894 235.382 190.103 229.879 187.806C229.737 186.468 229.599 185.155 229.466 183.871C236.477 186.656 243.315 190.213 249.833 194.467C257.644 191.259 264.715 189.482 270.784 189.138C266.758 186.213 262.481 183.612 257.99 181.376C250.499 179.808 242.152 179.649 232.598 180.754C231.463 180.885 230.328 181.039 229.193 181.214C229.072 180.027 228.955 178.867 228.842 177.738C229.96 177.568 231.079 177.418 232.197 177.288C237.192 176.711 241.909 176.464 246.386 176.581C240.607 174.656 234.568 173.3 228.335 172.581C227.871 167.78 227.501 163.734 227.228 160.699C279.053 165.407 319.654 208.976 319.654 262.027ZM275.32 192.661C274.403 192.585 273.439 192.554 272.427 192.569C267.102 192.65 260.664 194.029 253.326 196.834C258.588 200.537 263.615 204.7 268.326 209.282L280.403 197.205C278.767 195.628 277.072 194.112 275.32 192.661ZM282.867 199.675L270.793 211.749C275.34 216.426 279.475 221.415 283.155 226.636C285.856 219.468 287.185 213.171 287.265 207.946C287.284 206.699 287.232 205.524 287.113 204.422C285.754 202.79 284.337 201.206 282.867 199.675ZM290.722 209.05C290.461 215.134 288.729 222.253 285.532 230.135C290.776 238.156 294.965 246.662 297.957 255.378C298.48 252.81 298.891 250.237 299.189 247.666C300.334 237.759 300.068 229.094 298.238 221.311C296.056 217.014 293.539 212.915 290.722 209.05ZM303.309 233.42C303.478 238.028 303.252 242.897 302.654 248.067C302.117 252.718 301.219 257.37 299.982 261.983C301.248 266.666 302.165 271.388 302.711 276.109C303.289 281.107 303.535 285.827 303.418 290.306C306.357 281.413 307.948 271.905 307.948 262.027C307.948 252.027 306.318 242.407 303.309 233.42ZM298.596 302.032C300.189 294.507 300.356 286.119 299.245 276.51C298.94 273.87 298.514 271.228 297.971 268.592C294.996 277.32 290.819 285.839 285.585 293.874C288.778 301.681 290.54 308.745 290.867 314.805C293.78 310.785 296.369 306.514 298.596 302.032ZM287.326 319.376C287.411 318.416 287.446 317.404 287.43 316.339C287.349 311.047 285.987 304.656 283.216 297.374C279.521 302.633 275.365 307.659 270.792 312.37L282.835 324.412C284.393 322.791 285.892 321.111 287.326 319.376ZM283.913 290.006C289.469 281.091 293.683 271.619 296.364 261.987C293.665 252.367 289.436 242.91 283.869 234.01C279.803 243.008 274.099 252.527 267.142 262.03C274.105 271.513 279.822 281.017 283.913 290.006ZM268.326 214.216L245.637 236.905C252.712 244.078 259.216 251.568 264.956 259.106C272.033 249.328 277.72 239.591 281.595 230.515C277.717 224.783 273.276 219.313 268.326 214.216Z" fill="black"/>
<path d="M110.755 189.594C110.43 188.364 110.229 187.086 110.549 185.856C111.103 183.728 112.866 180.142 118.407 176.934C118.407 176.934 123.263 187.456 124.151 199.29C124.245 200.536 123.758 201.749 122.874 202.633L118.407 207.1C114.03 200.703 111.668 193.048 110.755 189.594Z" fill="black"/>
<path d="M98.1492 207.2C98.1867 208.471 98.7383 209.641 99.3948 210.73C101.24 213.79 105.654 220.475 111.649 225.387L114.684 219.847C115.285 218.751 115.412 217.45 114.973 216.28C110.801 205.17 103.189 196.433 103.189 196.433C98.7708 201.066 98.0844 205.002 98.1492 207.2Z" fill="black"/>
<path d="M92.694 233.77C91.8584 232.812 91.112 231.755 90.8544 230.51C90.4089 228.356 90.4014 224.361 93.9484 219.031C93.9484 219.031 102.962 226.313 108.999 236.53C109.635 237.606 109.736 238.91 109.335 240.093L107.307 246.077C100.55 242.28 95.0427 236.463 92.694 233.77Z" fill="black"/>
<path d="M87.0105 253.289C87.4597 254.478 88.3622 255.405 89.3374 256.22C92.0785 258.513 98.4284 263.397 105.696 266.09L106.762 259.863C106.973 258.631 106.67 257.36 105.873 256.396C98.3122 247.25 88.2706 241.467 88.2706 241.467C85.6011 247.286 86.2335 251.231 87.0105 253.289Z" fill="black"/>
<path d="M91.1122 279.133C90.0215 278.48 88.985 277.706 88.3554 276.601C87.2661 274.691 86.0243 270.893 87.7507 264.728C87.7507 264.728 98.5733 268.869 107.472 276.72C108.41 277.547 108.908 278.755 108.892 280.005L108.813 286.322C101.214 284.799 94.1783 280.969 91.1122 279.133Z" fill="black"/>
<path d="M93.2834 299.812C94.0607 300.818 95.1948 301.44 96.3658 301.935C99.6575 303.326 107.158 306.14 114.895 306.59L114.094 300.324C113.936 299.084 113.274 297.957 112.231 297.269C102.326 290.732 91.0322 288.138 91.0322 288.138C90.1806 294.483 91.9388 298.071 93.2834 299.812Z" fill="black"/>
<path d="M105.971 323.504C104.712 323.329 103.456 323.021 102.444 322.251C100.695 320.917 98.0683 317.907 97.2485 311.557C97.2485 311.557 108.829 311.14 120.088 314.89C121.274 315.285 122.205 316.203 122.679 317.359L125.074 323.205C117.484 324.772 109.511 323.996 105.971 323.504Z" fill="black"/>
<path d="M115.928 342.699C117.057 343.282 118.348 343.367 119.619 343.321C123.19 343.19 131.177 342.571 138.38 339.709L135.005 334.368C134.338 333.311 133.262 332.57 132.025 332.387C120.286 330.649 108.954 333.07 108.954 333.07C110.864 339.181 113.974 341.69 115.928 342.699Z" fill="black"/>
<path d="M135.195 358.397C133.94 358.598 132.648 358.671 131.456 358.23C129.394 357.466 126.001 355.355 123.361 349.523C123.361 349.523 134.313 345.738 146.177 346.033C147.426 346.064 148.585 346.669 149.376 347.636L153.376 352.526C146.576 356.244 138.724 357.833 135.195 358.397Z" fill="black"/>
<path d="M195.394 120.658L195.394 117.056C154.874 122.459 115.483 149.112 95.4457 180.537C72.7964 216.057 70.2333 238.615 70.2336 276.433L84.1903 287.238C77.8872 257.524 78.2696 222.355 100.848 184.589C118.189 155.583 147.869 129.654 195.394 120.658Z" fill="black"/>
<path d="M17.1082 325.957L217.905 479.481L418.701 325.957V344.866L217.905 498.84L17.1082 344.866V325.957Z" fill="black"/>
<path fill-rule="evenodd" clip-rule="evenodd" d="M212.34 178.845C211.574 190.168 208.647 233.415 203.948 263.827C187.74 368.727 156.225 388.086 156.225 388.086C156.225 388.086 93.1948 366.476 78.3377 292.641L31.9654 253.922L17.1082 266.528V316.952L217.905 470.926L418.701 316.952V266.528L403.844 253.922L357.472 292.641C342.615 366.476 279.584 388.086 279.584 388.086C279.584 388.086 248.069 368.727 231.862 263.827C227.163 233.415 224.236 190.168 223.47 178.845C223.395 177.741 223.341 176.94 223.307 176.485C222.933 171.36 222.407 126.06 222.407 126.06L234.113 131.463L217.905 62.1296L201.697 131.463L213.403 126.06C213.403 126.06 212.877 171.36 212.502 176.485C212.469 176.94 212.415 177.741 212.34 178.845ZM217.905 363.775L228.71 390.338L217.905 401.593L207.1 390.338L217.905 363.775ZM257.074 402.944L230.511 413.749L219.255 402.944L230.511 392.139L257.074 402.944ZM217.905 442.113L207.1 415.55L217.905 404.294L228.71 415.55L217.905 442.113ZM178.736 402.944L205.299 392.139L216.554 402.944L205.299 413.749L178.736 402.944Z" fill="black"/>
<path d="M325.055 189.594C325.38 188.364 325.581 187.086 325.26 185.856C324.706 183.728 322.943 180.142 317.403 176.934C317.403 176.934 312.547 187.456 311.659 199.29C311.565 200.536 312.052 201.749 312.936 202.633L317.403 207.1C321.78 200.703 324.142 193.048 325.055 189.594Z" fill="black"/>
<path d="M332.62 196.433C337.039 201.066 337.725 205.002 337.66 207.2C337.623 208.471 337.071 209.641 336.415 210.73C334.569 213.79 330.156 220.475 324.161 225.387L321.125 219.847C320.525 218.751 320.398 217.45 320.837 216.28C325.008 205.17 332.62 196.433 332.62 196.433Z" fill="black"/>
<path d="M343.116 233.77C343.951 232.812 344.698 231.755 344.955 230.51C345.401 228.356 345.408 224.361 341.861 219.031C341.861 219.031 332.848 226.313 326.811 236.53C326.175 237.606 326.074 238.91 326.475 240.093L328.502 246.077C335.259 242.28 340.767 236.463 343.116 233.77Z" fill="black"/>
<path d="M348.799 253.289C348.35 254.478 347.447 255.405 346.472 256.22C343.731 258.513 337.381 263.397 330.114 266.09L329.047 259.863C328.836 258.631 329.14 257.36 329.936 256.396C337.497 247.25 347.539 241.467 347.539 241.467C350.208 247.286 349.576 251.231 348.799 253.289Z" fill="black"/>
<path d="M344.697 279.133C345.788 278.48 346.825 277.706 347.454 276.601C348.544 274.691 349.785 270.893 348.059 264.728C348.059 264.728 337.236 268.869 328.337 276.72C327.4 277.547 326.902 278.755 326.917 280.005L326.996 286.322C334.596 284.799 341.631 280.969 344.697 279.133Z" fill="black"/>
<path d="M342.526 299.812C341.749 300.818 340.615 301.44 339.444 301.935C336.152 303.326 328.652 306.14 320.914 306.59L321.715 300.324C321.874 299.084 322.536 297.957 323.579 297.269C333.484 290.732 344.777 288.138 344.777 288.138C345.629 294.483 343.871 298.071 342.526 299.812Z" fill="black"/>
<path d="M329.838 323.504C331.098 323.329 332.354 323.021 333.365 322.251C335.114 320.917 337.741 317.907 338.561 311.557C338.561 311.557 326.981 311.14 315.722 314.89C314.536 315.285 313.605 316.203 313.131 317.359L310.735 323.205C318.326 324.772 326.299 323.996 329.838 323.504Z" fill="black"/>
<path d="M319.882 342.699C318.752 343.282 317.461 343.367 316.191 343.321C312.62 343.19 304.633 342.571 297.43 339.709L300.804 334.368C301.472 333.311 302.548 332.57 303.784 332.387C315.524 330.649 326.856 333.07 326.856 333.07C324.946 339.181 321.836 341.69 319.882 342.699Z" fill="black"/>
<path d="M300.614 358.397C301.87 358.598 303.161 358.671 304.353 358.23C306.416 357.466 309.808 355.355 312.449 349.523C312.449 349.523 301.496 345.738 289.633 346.033C288.383 346.064 287.225 346.669 286.433 347.636L282.433 352.526C289.234 356.244 297.086 357.833 300.614 358.397Z" fill="black"/>
<path d="M240.416 120.658L240.416 117.056C280.935 122.459 320.326 149.112 340.364 180.537C363.013 216.057 365.576 238.615 365.576 276.433L351.619 287.238C357.922 257.524 357.54 222.355 334.961 184.589C317.62 155.583 287.941 129.654 240.416 120.658Z" fill="black"/>
<path d="M46.8225 154.424L217.905 21.6104L388.987 154.424V231.411L374.58 220.606C374.58 220.606 364.675 169.732 322.355 134.615C280.035 99.4979 232.312 98.1472 232.312 98.1472L217.905 36.4675L203.498 98.1472C203.498 98.1472 155.775 99.4979 113.455 134.615C71.1342 169.732 61.2294 220.606 61.2294 220.606L46.8225 231.411V154.424Z" fill="black"/>
<path fill-rule="evenodd" clip-rule="evenodd" d="M0 257.074L29.7143 235.013V146.771L217.905 0L406.095 146.771V235.013L435.81 257.074V353.87L217.905 520L0 353.87V257.074ZM8.1039 260.675L36.7131 239.398V150.565L217.905 9.00433L399.096 150.565V239.398L427.706 260.675V350.313L217.905 510.546L8.1039 350.313V260.675Z" fill="black"/>
</svg>
