<?xml version="1.0" encoding="UTF-8"?>
<svg version="1.1" xmlns="http://www.w3.org/2000/svg" width="532" height="607">
<path d="M0 0 C29.7 0 59.4 0 90 0 C93.96 13.2 97.92 26.4 102 40 C104.59541287 48.52365395 107.19499639 57.04566283 109.8125 65.5625 C111.02777379 69.52200351 112.24243475 73.48169493 113.45703125 77.44140625 C113.75346527 78.4076593 114.04989929 79.37391235 114.35531616 80.3694458 C120.50447173 100.42033438 126.57546401 120.49483626 132.6313858 140.57404327 C133.25932186 142.65590576 133.88742963 144.73771638 134.51556396 146.81951904 C139.42062934 163.07762945 144.3064907 179.34098193 149.125 195.625 C152.39983706 206.68883129 155.75440243 217.72420797 159.19506836 228.73779297 C163.08711649 241.22322439 166.88963562 253.73564016 170.6875 266.25 C171.04270721 267.4204184 171.39791443 268.59083679 171.7638855 269.79672241 C178.74344074 292.80344771 185.67720083 315.82395531 192.60873413 338.84518433 C199.16292871 360.61271596 205.74359929 382.37183247 212.3815155 404.11401367 C213.3413632 407.25991081 214.29917553 410.40642306 215.25585938 413.55328369 C215.78251031 415.28489918 216.30993012 417.01628091 216.83789062 418.74749756 C217.68643845 421.53263312 218.53114851 424.31890715 219.375 427.10546875 C219.76969482 428.39775139 219.76969482 428.39775139 220.17236328 429.71614075 C220.41196777 430.51001694 220.65157227 431.30389313 220.8984375 432.12182617 C221.11161621 432.82393723 221.32479492 433.52604828 221.54443359 434.24943542 C222 436 222 436 222 438 C233.88 438 245.76 438 258 438 C258.66 435.03 259.32 432.06 260 429 C260.61630244 426.7672601 261.2584875 424.54146581 261.92919922 422.32446289 C262.30574646 421.07403198 262.6822937 419.82360107 263.07025146 418.53527832 C263.48166445 417.18105101 263.89314527 415.82684429 264.3046875 414.47265625 C264.74020919 413.03088696 265.17544336 411.58903078 265.6104126 410.14709473 C266.78329526 406.26195061 267.96024414 402.37804929 269.1379776 398.49437332 C270.38322997 394.38554837 271.62472643 390.27558868 272.86669922 386.16577148 C275.41868589 377.72340541 277.97519572 369.28241434 280.53295898 360.84179688 C281.91405097 356.2840969 283.29413297 351.72609173 284.67382812 347.16796875 C290.23156594 328.80737582 295.79708968 310.44914974 301.36549377 292.09178925 C304.86214323 280.56431569 308.35832828 269.03670147 311.85315323 257.50867462 C312.28428718 256.08654559 312.71543697 254.66442136 313.14660263 253.24230194 C318.10183885 236.89813805 323.04550476 220.55072534 327.9375 204.1875 C335.31902805 179.49861586 342.85933107 154.8576122 350.36891747 130.20746231 C354.83818548 115.53684279 359.29659598 100.86294363 363.75 86.1875 C364.43058073 83.94506777 365.1111634 81.70263612 365.79174805 79.46020508 C368.85241445 69.37510955 371.91214904 59.28973139 374.97159195 49.20426464 C376.56993585 43.93539444 378.16856378 38.66661045 379.76736069 33.39787769 C381.0898139 29.03971804 382.41165814 24.68137395 383.73339844 20.32299805 C384.41599123 18.07339755 385.09860714 15.82380406 385.78125 13.57421875 C386.25023712 12.02704163 386.25023712 12.02704163 386.72869873 10.4486084 C387.01481018 9.50610229 387.30092163 8.56359619 387.59570312 7.5925293 C387.96846375 6.36363228 387.96846375 6.36363228 388.34875488 5.10990906 C388.87668882 3.39950453 389.43394365 1.69816904 390 0 C419.7 0 449.4 0 480 0 C469.29906542 36.38317757 469.29906542 36.38317757 464.1953125 52.8515625 C461.40813239 61.88433341 458.70917649 70.94360701 456 80 C452.64281699 91.22053493 449.27327496 102.43589574 445.8125 113.625 C441.45504483 127.72415417 437.21096085 141.85652118 433 156 C432.75489685 156.82274414 432.5097937 157.64548828 432.25726318 158.49316406 C426.25045995 178.66044014 420.27644396 198.8320886 414.63656616 219.10540771 C412.31441718 227.4436501 409.89355023 235.73835277 407.3125 244 C403.75718247 255.39845073 400.39289788 266.84669773 397.0625 278.3125 C389.43976479 304.54919005 381.72676157 330.75906738 374.01072025 356.9684391 C372.72312844 361.34219232 371.43573934 365.71600518 370.1484375 370.08984375 C369.89563459 370.94872192 369.64283169 371.8076001 369.38236809 372.69250488 C364.95326349 387.74167676 360.54234354 402.79613628 356.14242554 417.85386658 C352.86831966 429.05536934 349.56565483 440.24823043 346.25 451.4375 C340.58970246 470.55546813 334.98744108 489.69026832 329.39079189 508.8269434 C327.53993073 515.15528144 325.68749513 521.48315703 323.83422852 527.81079102 C322.80220463 531.33478604 321.77023427 534.85879673 320.73828125 538.3828125 C320.36095195 539.67125344 320.36095195 539.67125344 319.97599983 540.9857235 C317.18972099 550.50092709 314.41027028 560.01799378 311.65060425 569.54095459 C310.43588068 573.73007023 309.2153835 577.9174869 307.9934082 582.10449219 C307.46235918 583.93010391 306.93429044 585.7565856 306.40942383 587.58398438 C305.71137953 590.01395795 305.00350355 592.4408426 304.29296875 594.8671875 C304.10034958 595.54844696 303.90773041 596.22970642 303.70927429 596.93161011 C302.64496455 600.5223671 301.63214279 603.3090495 299 606 C296.35618591 606.52571106 296.35618591 606.52571106 293.11889648 606.56176758 C291.89740906 606.58466858 290.67592163 606.60756958 289.41741943 606.63116455 C288.06864607 606.63615321 286.71987058 606.64059186 285.37109375 606.64453125 C283.96329741 606.66250496 282.55552035 606.68204925 281.14776611 606.70306396 C277.36171749 606.75398277 273.57590349 606.77905261 269.78957748 606.7983284 C266.66086454 606.81717934 263.53237296 606.85063931 260.40378284 606.88365841 C233.59238356 607.16023691 206.80045809 606.82563758 180 606 C176.40493503 598.69542141 174.15340796 591.17685277 171.95703125 583.35546875 C171.56920714 581.99450256 171.18057811 580.63376554 170.79121399 579.27323914 C170.17184333 577.10861436 169.55298769 574.94385513 168.93645382 572.77842045 C166.75454501 565.11622879 164.51824934 557.47020744 162.27737999 549.8250885 C161.56720773 547.40185846 160.85790964 544.97837417 160.14888 542.55480957 C158.9181366 538.34805181 157.6868095 534.14146523 156.45525742 529.93494415 C155.67146874 527.25774172 154.88780244 524.58050349 154.10415649 521.90325928 C146.55537994 496.11473595 138.98778844 470.33180939 131.40080452 444.55450344 C130.37912072 441.08322871 129.35749825 437.61193594 128.3359375 434.140625 C128.12953014 433.43924471 127.92312279 432.73786442 127.71046066 432.01523018 C121.86238419 412.14184715 116.02940694 392.26402907 110.19617844 372.38628387 C109.3153085 369.38457046 108.43440468 366.38286698 107.55349731 363.38116455 C102.01787906 344.51814531 96.48323423 325.65484254 90.95703125 306.7890625 C90.76825031 306.14460049 90.57946938 305.50013847 90.3849678 304.83614731 C89.47704578 301.73665629 88.56915041 298.63715747 87.66125488 295.53765869 C87.31929077 294.37023132 86.97732666 293.20280396 86.625 292 C86.28770874 290.84852478 85.95041748 289.69704956 85.60290527 288.51068115 C79.82034275 268.7724311 73.99915934 249.04574455 68.16531372 229.32260132 C65.7308021 221.09136502 63.29963232 212.85915214 60.875 204.625 C60.67305023 203.93943024 60.47110046 203.25386047 60.26303101 202.54751587 C57.98507514 194.81053514 55.72640229 187.06838778 53.5 179.31640625 C46.20930604 153.94465994 38.6047628 128.67258243 30.94287109 103.41064453 C29.16110479 97.53445244 27.38580438 91.65632968 25.61328125 85.77734375 C21.07025483 70.71469606 16.51462695 55.65641396 11.89453125 40.6171875 C11.37583717 38.92770996 11.37583717 38.92770996 10.84666443 37.20410156 C9.15430378 31.69264431 7.45925354 26.18203998 5.75952148 20.67285156 C5.14688802 18.68036456 4.53433505 16.68785281 3.921875 14.6953125 C3.64024002 13.7859494 3.35860504 12.8765863 3.06843567 11.93966675 C2.8096312 11.09606598 2.55082672 10.25246521 2.28417969 9.38330078 C2.05913757 8.65362091 1.83409546 7.92394104 1.60223389 7.17214966 C0.94775246 4.81155249 0.48041508 2.40207541 0 0 Z " fill="#1A1A51" transform="translate(26,0)"/>
<path d="M0 0 C0.33 0 0.66 0 1 0 C1.27479996 38.03077332 1.48618287 76.06139682 1.61278395 114.09296246 C1.62779203 118.58516996 1.64332394 123.0773755 1.65917969 127.56958008 C1.66232741 128.46387909 1.66547514 129.35817811 1.66871825 130.2795771 C1.72090288 144.75100301 1.81549951 159.2218556 1.92583355 173.69294164 C2.03814089 188.54697198 2.10472379 203.40070253 2.12906194 218.25514001 C2.14550993 227.41798357 2.19741063 236.57920658 2.2949976 245.74155112 C2.35854087 252.02868725 2.37757718 258.31498846 2.36201653 264.60242222 C2.35434556 268.2280975 2.36590656 271.85094664 2.4304657 275.47611618 C2.81802312 298.34950956 2.81802312 298.34950956 -1.61367035 304.06340599 C-4.40693945 306.92305123 -7.58313161 308.9339726 -11 311 C-12.45881607 312.37322415 -13.88578503 313.78275551 -15.25 315.25 C-17.64041233 317.67949929 -20.07497795 319.96512211 -22.671875 322.171875 C-27.34107757 326.229147 -31.66516854 330.5911953 -36 335 C-44.4223506 343.56607672 -44.4223506 343.56607672 -48.9375 347.4375 C-53.88924356 351.69305783 -58.42065057 356.35126648 -63 361 C-72.48538992 370.62910795 -72.48538992 370.62910795 -76.96875 374.46875 C-82.09182794 378.86142928 -86.76514747 383.69721559 -91.5 388.5 C-96.95625963 394.03454169 -102.40526681 399.47432853 -108.31152344 404.52978516 C-111.16397871 407.01351645 -113.72982481 409.76019457 -116.3359375 412.49609375 C-118 414 -118 414 -120 414 C-119.4264538 408.27779226 -118.31284156 403.12496413 -116.578125 397.65234375 C-116.20012253 396.42858284 -116.20012253 396.42858284 -115.81448364 395.18009949 C-115.25976344 393.38512435 -114.70223851 391.59101417 -114.14227295 389.79766846 C-112.55509147 384.70998042 -110.99271726 379.61468159 -109.4296875 374.51953125 C-109.08487335 373.39653625 -108.7400592 372.27354126 -108.38479614 371.11651611 C-103.8368941 356.26231306 -99.45604917 341.35837301 -95.06281662 326.45786285 C-93.0156625 319.51454442 -90.96708274 312.57164651 -88.91796875 305.62890625 C-88.6996319 304.889002 -88.48129505 304.14909775 -88.25634193 303.38677216 C-85.00130483 292.35831847 -81.70676329 281.34239026 -78.37545776 270.33673096 C-68.99215459 239.31767764 -60.27533266 208.10175343 -51.4453125 176.921875 C-51.25606642 176.25368996 -51.06682034 175.58550491 -50.87183952 174.89707184 C-48.8613078 167.79821943 -46.85216449 160.69898209 -44.84692383 153.59863281 C-41.69487162 142.44652138 -38.51634738 131.30396234 -35.25390625 120.18359375 C-32.70992801 111.50633814 -30.28494892 102.81203062 -28 94.0625 C-19.63479437 62.41471522 -10.44882698 31.02824255 0 0 Z " fill="#1A1A51" transform="translate(531,96)"/>
<path d="M0 0 C1.97312831 2.95969246 2.87323391 5.31337342 3.953125 8.6796875 C4.32187744 9.82493896 4.69062988 10.97019043 5.07055664 12.15014648 C5.45977295 13.37934814 5.84898926 14.6085498 6.25 15.875 C6.45108368 16.50624786 6.65216736 17.13749573 6.85934448 17.78787231 C10.47118023 29.12878206 13.84199642 40.52449252 17 52 C17.30260742 53.09924805 17.60521484 54.19849609 17.91699219 55.33105469 C18.24086914 56.50829102 18.56474609 57.68552734 18.8984375 58.8984375 C19.23609131 60.12506104 19.57374512 61.35168457 19.92163086 62.61547852 C20.56559164 64.95902527 21.20730623 67.30319134 21.84594727 69.64819336 C23.93975782 77.29732514 26.1333 84.91303825 28.36328125 92.5234375 C31.4642994 103.11099509 34.46835065 113.72279304 37.42572021 124.35125732 C43.30844683 145.48507793 49.27020903 166.59624356 55.25804138 187.70046616 C55.86390513 189.83589499 56.46962548 191.97136446 57.07531738 194.10684204 C59.16540255 201.47512934 61.2576124 208.84280837 63.35329056 216.20950699 C64.4550973 220.08270687 65.55528404 223.95636202 66.65427971 227.83036041 C67.53637343 230.93807937 68.42070762 234.04516087 69.3046875 237.15234375 C69.61550262 238.24944672 69.92631775 239.34654968 70.24655151 240.47689819 C72.46205018 248.25207673 74.82583207 255.97501375 77.25 263.6875 C80.86027407 275.21337342 84.31148135 286.77840966 87.6875 298.375 C92.17441319 313.7874364 96.7197385 329.18125951 101.3125 344.5625 C105.17475893 357.49999942 109.03527518 370.43702374 112.78662109 383.40722656 C114.07790781 387.86650373 115.39351102 392.31669606 116.74609375 396.7578125 C117.03033203 397.69278564 117.31457031 398.62775879 117.60742188 399.59106445 C118.14269363 401.34596865 118.6814934 403.09980251 119.22460938 404.85229492 C120.1836971 407.99542092 121 410.69367535 121 414 C116.74257863 413.52695318 114.74294902 411.1136178 112 408 C111.505 406.515 111.505 406.515 111 405 C110.42991211 404.71535889 109.85982422 404.43071777 109.27246094 404.13745117 C106.17262027 402.58586569 104.02861726 400.25584264 101.640625 397.80078125 C100.87851715 397.03087105 100.87851715 397.03087105 100.10101318 396.2454071 C98.47916351 394.60580301 96.8641434 392.95968847 95.25 391.3125 C93.13367271 389.15931964 91.01411088 387.00940231 88.890625 384.86328125 C88.37544312 384.34251007 87.86026123 383.82173889 87.32946777 383.28518677 C83.98067691 379.92314123 80.52320686 376.7635726 76.91308594 373.68823242 C72.28013517 369.599813 68.04079537 365.07562123 63.7109375 360.671875 C60.27471751 357.20023006 56.83799257 353.80108326 53.125 350.625 C47.28225959 345.60371418 41.96822481 340.0248752 36.56347656 334.54296875 C31.47232535 329.38578895 26.35545892 324.33539665 20.84521484 319.62255859 C17.68105811 316.84021066 14.75747829 313.82314112 11.8125 310.8125 C10.63399764 309.60823802 9.4530579 308.40635581 8.26953125 307.20703125 C7.76010986 306.6860083 7.25068848 306.16498535 6.72583008 305.62817383 C4.99701162 303.8523549 4.99701162 303.8523549 2.42971516 302.64012527 C-1.50253475 298.36734772 -0.67187036 293.73157769 -0.60127258 288.12982178 C-0.60554471 286.90133837 -0.60981683 285.67285496 -0.61421841 284.40714478 C-0.62103888 280.99517615 -0.60538417 277.58463662 -0.58032811 274.1728406 C-0.55875954 270.49462172 -0.56604096 266.81644791 -0.56983948 263.13818359 C-0.57246276 256.76478336 -0.55675964 250.39163883 -0.52865028 244.01830292 C-0.48803537 234.80354529 -0.47499515 225.58891145 -0.46871033 216.37407401 C-0.45776397 201.42411725 -0.42448055 186.4742968 -0.37719727 171.52441406 C-0.33131048 157.00098351 -0.29591427 142.47758996 -0.2746582 127.95410156 C-0.27334459 127.05905378 -0.27203097 126.164006 -0.27067754 125.24183556 C-0.26415241 120.75169696 -0.25783386 116.26155809 -0.25161803 111.77141905 C-0.1997744 74.51418311 -0.11169986 37.25710216 0 0 Z " fill="#1A1A51" transform="translate(0,96)"/>
<path d="M0 0 C39.6 0 79.2 0 120 0 C118.71089293 5.80098179 117.39798265 11.23058427 115.49609375 16.8046875 C115.25672592 17.5186821 115.01735809 18.2326767 114.77073669 18.9683075 C113.99734567 21.27203041 113.2176016 23.57354177 112.4375 25.875 C111.898841 27.47373877 111.3605964 29.07261722 110.82275391 30.67163086 C110.00703232 33.09638617 109.19091075 35.52099959 108.3729248 37.94499207 C106.65310544 43.04369919 104.95553175 48.14916872 103.27734375 53.26171875 C102.8687915 54.50260254 102.46023926 55.74348633 102.03930664 57.02197266 C101.2788546 59.33442297 100.52139659 61.64786062 99.76733398 63.96240234 C99.42903564 64.98672363 99.0907373 66.01104492 98.7421875 67.06640625 C98.4519873 67.95271729 98.16178711 68.83902832 97.86279297 69.75219727 C97 72 97 72 95 75 C92.10202026 75.36076355 92.10202026 75.36076355 88.34716797 75.34057617 C87.66412598 75.34101425 86.98108398 75.34145233 86.27734375 75.34190369 C84.01533612 75.33981044 81.75406594 75.31645543 79.4921875 75.29296875 C77.92563278 75.28737467 76.35907282 75.28310369 74.79251099 75.28010559 C70.66597038 75.26864192 66.53974571 75.23916195 62.41333008 75.20599365 C58.20398228 75.17532537 53.99458352 75.16160721 49.78515625 75.14648438 C41.52329239 75.11429344 33.26168547 75.06307904 25 75 C22.54685591 69.65517449 20.32415075 64.33972844 18.484375 58.74609375 C18.26734421 58.09089249 18.05031342 57.43569122 17.82670593 56.76063538 C17.13007595 54.65434353 16.43987231 52.54601376 15.75 50.4375 C15.26611936 48.96861389 14.78182126 47.49986524 14.29711914 46.03125 C13.56505676 43.81270457 12.83340807 41.59403088 12.10365295 39.37472534 C10.61455565 34.84813017 9.10411039 30.32942688 7.57421875 25.81640625 C7.21038086 24.74011963 6.84654297 23.66383301 6.47167969 22.55493164 C5.80499601 20.58557073 5.13530113 18.61722538 4.46191406 16.65014648 C4.16381836 15.76528564 3.86572266 14.8804248 3.55859375 13.96875 C3.30392334 13.22044922 3.04925293 12.47214844 2.78686523 11.70117188 C1.66549089 7.85168825 0.86978035 3.91401159 0 0 Z " fill="#1A1A51" transform="translate(206,94)"/>
</svg>
