<?xml version="1.0" encoding="utf-8"?>
<!-- Generator: Adobe Illustrator 24.1.2, SVG Export Plug-In . SVG Version: 6.00 Build 0)  -->
<svg version="1.1" xmlns="http://www.w3.org/2000/svg" xmlns:xlink="http://www.w3.org/1999/xlink" x="0px" y="0px"
	 viewBox="0 0 1080 1080" style="enable-background:new 0 0 1080 1080;" xml:space="preserve">
<style type="text/css">
	.st0{display:none;}
	.st1{display:inline;opacity:0.11;}
</style>
<g id="Content" class="st0">
	<g class="st1">
		<path d="M257.8,384.5c0,0,39.1,66.7,77.1,76.8l167.7,44.5c6.1,1.6,11.6-4,10-10l-45.1-168c-0.3-1.3-0.7-2.5-1.1-3.8
			c-12-39.1-49-65.2-90.1-65.2H201.4c-6.5,0-10.7,6.8-7.8,12.6C223,328.7,257.8,384.5,257.8,384.5z"/>
		<path d="M453.1,235.3c26.4,19.8,45.8,48.1,54.8,81.6L537.7,428c1.1,4.1,4.6,6.1,8.1,6c3.5,0.1,7-1.9,8.1-6l29.8-111.1
			c9-33.5,28.3-61.8,54.8-81.6c3-2.3,4-6.4,2.1-9.7c0,0,0,0,0-0.1c-19.6-34.2-54.7-54.6-94-54.7h0c-0.3,0-0.5,0-0.8,0
			c-0.3,0-0.5,0-0.8,0h0c-39.3,0.1-74.4,20.5-94,54.7c0,0,0,0,0,0.1C449.1,228.9,450.1,233.1,453.1,235.3z"/>
		<path d="M233.2,631.9C233.2,631.9,233.2,631.9,233.2,631.9c3.4,1.9,7.5,0.9,9.8-2.1c19.7-26.5,47.9-45.9,81.3-54.9L435.1,545
			c2.7-0.7,4.5-2.5,5.4-4.6h0.7c0-0.6,0-1.1-0.2-1.6c0.1-0.3,0.1-0.6,0.1-0.9h0c0-0.1,0-0.3,0-0.4c0.1-0.5,0.1-1.1,0.1-1.6h-0.7
			c-0.9-2.1-2.7-3.9-5.4-4.6l-110.9-29.4c-33.5-8.9-61.7-28.2-81.6-54.6c-2.3-3-6.4-4-9.7-2.1c0,0,0,0-0.1,0
			c-33.1,19.2-53.1,53.1-54.1,91.2h0c0,0.5,0,1,0,1.5h0c0,0.5,0,0.9,0,1.4c0,0.6,0,1.1,0,1.6h0.1c0.5,18.5,5.6,36,14.4,51.2
			C202.6,608.4,216.2,622.1,233.2,631.9z"/>
		<path d="M468.4,748.4l44.4-168.2c1.6-6.1-3.9-11.6-10-10l-167.6,45.2c-37.8,10.2-76.6,76.7-76.6,76.7s-34,55.3-63,112.5
			c-2.9,5.8,1.3,12.5,7.8,12.5H378c40.8,0,77.6-26.1,89.3-65C467.7,750.9,468,749.7,468.4,748.4z"/>
		<path d="M624,327.8l-45.1,168c-1.6,6.1,3.9,11.6,10,10l167.7-44.5c38-10.1,77.1-76.8,77.1-76.8s34.8-55.8,64.2-113.2
			c2.9-5.8-1.3-12.6-7.8-12.6H715.2c-41.1,0-78.2,26.1-90.1,65.2C624.8,325.2,624.4,326.5,624,327.8z"/>
		<path d="M912.8,537.9c0-0.5,0-1,0-1.5h0c-1-38.1-21.1-72-54.1-91.2c0,0,0,0-0.1,0c-3.3-1.9-7.4-0.9-9.7,2.1
			c-19.8,26.4-48.1,45.7-81.6,54.6l-110.9,29.4c-2.7,0.7-4.5,2.5-5.4,4.6h-0.7c0,0.6,0,1.1,0.1,1.6c0,0.1,0,0.3,0,0.4h0
			c0,0.3,0,0.6,0.1,0.9c-0.1,0.5-0.2,1.1-0.2,1.6h0.7c0.9,2.1,2.7,3.9,5.4,4.6l110.8,29.9c33.4,9,61.6,28.4,81.3,54.9
			c2.3,3,6.4,4,9.7,2.1c0,0,0,0,0,0c17-9.8,30.7-23.5,40-39.7c8.8-15.3,13.9-32.8,14.4-51.2h0.1c0-0.6,0-1.1,0-1.6
			C912.9,538.9,912.9,538.4,912.8,537.9L912.8,537.9z"/>
		<path d="M637.2,840.9c-26.3-19.9-45.6-48.3-54.4-81.8l-29.3-111.2c-1-3.7-3.9-5.7-7.1-6v0c-0.2,0-0.4,0-0.6,0c-0.2,0-0.4,0-0.6,0
			v0c-3.1,0.3-6.1,2.3-7.1,6l-29.3,111.2c-8.8,33.5-28.1,61.9-54.4,81.8c-3,2.3-4,6.5-2.1,9.7c0,0,0,0,0,0.1
			c19.5,33.7,54.1,53.9,92.8,54.3v0c0.2,0,0.4,0,0.6,0c0.2,0,0.4,0,0.6,0v0c38.7-0.4,73.4-20.6,92.8-54.3c0,0,0,0,0-0.1
			C641.2,847.4,640.2,843.2,637.2,840.9z"/>
		<path d="M833,692.1c0,0-38.8-66.5-76.6-76.7l-167.6-45.2c-6.1-1.6-11.6,3.9-10,10l44.4,168.2c0.3,1.3,0.7,2.5,1.1,3.8
			c11.7,38.9,48.5,65,89.3,65h174.7c6.5,0,10.7-6.8,7.8-12.5C867,747.4,833,692.1,833,692.1z"/>
	</g>
</g>
<g id="Layer_2">
	<path d="M360.2,803.9c-2.8-10.2-158.6-545.3-158.6-545.3v395.8"/>
	<path d="M731.1,805.7c2.8-10.2,157.8-544.8,157.8-544.8v395.8"/>
	<polyline points="234.2,141.2 468.8,925.4 622.9,925.4 857.2,141.2 741.3,141.2 569.2,706.5 523.5,706.5 351.7,141.2 	"/>
	<polyline points="443.1,258.6 547.5,197.8 652.4,258.3 652.8,379.8 627,364.9 626.9,273.6 548,227.5 468.4,273.3 	"/>
	<polyline points="652.8,379.8 548.4,440.6 443.6,380.2 443.1,258.6 468.9,273.6 469,364.8 548,410.9 627.5,365.1 	"/>
	<polygon points="535.5,220.1 534.9,269.9 561.1,270.3 561.1,220.6 	"/>
	<polygon points="457.1,282.2 500.7,306.2 513.4,283.2 469.4,259.9 	"/>
	<polygon points="500.2,331.8 457,356.6 470,379.4 512.8,354 	"/>
	<polygon points="582.8,354.7 626.4,378.7 639.1,355.8 595.2,332.4 	"/>
	<polygon points="626.2,258.5 583,283.3 596,306 638.8,280.7 	"/>
	<polygon points="535.5,370.7 534.8,420.5 561,420.9 561,371.2 	"/>
	<polygon points="604.3,351.8 604.3,286.7 547.9,254.1 491.5,286.7 491.5,351.8 547.9,384.3 	"/>
</g>
</svg>
