<?xml version="1.0" encoding="utf-8"?>
<!-- Generator: Adobe Illustrator 24.1.2, SVG Export Plug-In . SVG Version: 6.00 Build 0)  -->
<svg version="1.1" xmlns="http://www.w3.org/2000/svg" xmlns:xlink="http://www.w3.org/1999/xlink" x="0px" y="0px"
	 viewBox="0 0 532 607" style="enable-background:new 0 0 532 607;" xml:space="preserve">
<style type="text/css">
	.st0{display:none;}
	.st1{display:inline;}
	.st2{display:inline;fill:#1A1A51;}
	.st3{display:inline;opacity:0.28;fill:#1A1A51;}
	.st4{fill:none;stroke:#000000;stroke-width:20;stroke-miterlimit:10;}
	.st5{stroke:#000000;stroke-miterlimit:10;}
	.st6{display:inline;opacity:0.1;}
</style>
<g id="Layer_6">
	<path d="M122.8,512.9C120.6,505,0,90.9,0,90.9v306.4"/>
	<path d="M409.9,514.4C412.1,506.4,532,92.6,532,92.6V399"/>
	<polyline points="25.3,0 206.8,607 326.1,607 507.5,0 417.8,0 284.5,437.6 249.2,437.6 116.2,0 	"/>
</g>
<g id="Layer_7" class="st0">
	<polyline class="st1" points="207.4,100.3 233.1,175.5 303.4,175.5 329.8,100.3 	"/>
</g>
<g id="Layer_1" class="st0">
	<path class="st2" d="M26,0c29.7,0,59.4,0,90,0c4,13.2,7.9,26.4,12,40c2.6,8.5,5.2,17,7.8,25.6c1.2,4,2.4,7.9,3.6,11.9
		c0.3,1,0.6,1.9,0.9,2.9c6.1,20.1,12.2,40.1,18.3,60.2c0.6,2.1,1.3,4.2,1.9,6.2c4.9,16.3,9.8,32.5,14.6,48.8
		c3.3,11.1,6.6,22.1,10.1,33.1c3.9,12.5,7.7,25,11.5,37.5c0.4,1.2,0.7,2.3,1.1,3.5c7,23,13.9,46,20.8,69
		c6.6,21.8,13.1,43.5,19.8,65.3c1,3.1,1.9,6.3,2.9,9.4c0.5,1.7,1.1,3.5,1.6,5.2c0.8,2.8,1.7,5.6,2.5,8.4c0.4,1.3,0.4,1.3,0.8,2.6
		c0.2,0.8,0.5,1.6,0.7,2.4c0.2,0.7,0.4,1.4,0.6,2.1c0.5,1.8,0.5,1.8,0.5,3.8c11.9,0,23.8,0,36,0c0.7-3,1.3-5.9,2-9
		c0.6-2.2,1.3-4.5,1.9-6.7c0.4-1.3,0.8-2.5,1.1-3.8c0.4-1.4,0.8-2.7,1.2-4.1c0.4-1.4,0.9-2.9,1.3-4.3c1.2-3.9,2.3-7.8,3.5-11.7
		c1.2-4.1,2.5-8.2,3.7-12.3c2.6-8.4,5.1-16.9,7.7-25.3c1.4-4.6,2.8-9.1,4.1-13.7c5.6-18.4,11.1-36.7,16.7-55.1
		c3.5-11.5,7-23.1,10.5-34.6c0.4-1.4,0.9-2.8,1.3-4.3c5-16.3,9.9-32.7,14.8-49.1c7.4-24.7,14.9-49.3,22.4-74
		c4.5-14.7,8.9-29.3,13.4-44c0.7-2.2,1.4-4.5,2-6.7c3.1-10.1,6.1-20.2,9.2-30.3c1.6-5.3,3.2-10.5,4.8-15.8c1.3-4.4,2.6-8.7,4-13.1
		c0.7-2.2,1.4-4.5,2-6.7c0.5-1.5,0.5-1.5,0.9-3.1c0.3-0.9,0.6-1.9,0.9-2.9c0.4-1.2,0.4-1.2,0.8-2.5c0.5-1.7,1.1-3.4,1.7-5.1
		c29.7,0,59.4,0,90,0c-10.7,36.4-10.7,36.4-15.8,52.9c-2.8,9-5.5,18.1-8.2,27.1c-3.4,11.2-6.7,22.4-10.2,33.6
		c-4.4,14.1-8.6,28.2-12.8,42.4c-0.2,0.8-0.5,1.6-0.7,2.5c-6,20.2-12,40.3-17.6,60.6c-2.3,8.3-4.7,16.6-7.3,24.9
		c-3.6,11.4-6.9,22.8-10.3,34.3c-7.6,26.2-15.3,52.4-23.1,78.7c-1.3,4.4-2.6,8.7-3.9,13.1c-0.3,0.9-0.5,1.7-0.8,2.6
		c-4.4,15-8.8,30.1-13.2,45.2c-3.3,11.2-6.6,22.4-9.9,33.6c-5.7,19.1-11.3,38.3-16.9,57.4c-1.9,6.3-3.7,12.7-5.6,19
		c-1,3.5-2.1,7-3.1,10.6c-0.4,1.3-0.4,1.3-0.8,2.6c-2.8,9.5-5.6,19-8.3,28.6c-1.2,4.2-2.4,8.4-3.7,12.6c-0.5,1.8-1.1,3.7-1.6,5.5
		c-0.7,2.4-1.4,4.9-2.1,7.3c-0.2,0.7-0.4,1.4-0.6,2.1c-1.1,3.6-2.1,6.4-4.7,9.1c-2.6,0.5-2.6,0.5-5.9,0.6c-1.2,0-2.4,0-3.7,0.1
		c-1.3,0-2.7,0-4,0c-1.4,0-2.8,0-4.2,0.1c-3.8,0.1-7.6,0.1-11.4,0.1c-3.1,0-6.3,0.1-9.4,0.1c-26.8,0.3-53.6-0.1-80.4-0.9
		c-3.6-7.3-5.8-14.8-8-22.6c-0.4-1.4-0.8-2.7-1.2-4.1c-0.6-2.2-1.2-4.3-1.9-6.5c-2.2-7.7-4.4-15.3-6.7-23c-0.7-2.4-1.4-4.8-2.1-7.3
		c-1.2-4.2-2.5-8.4-3.7-12.6c-0.8-2.7-1.6-5.4-2.4-8c-7.5-25.8-15.1-51.6-22.7-77.3c-1-3.5-2-6.9-3.1-10.4c-0.2-0.7-0.4-1.4-0.6-2.1
		c-5.8-19.9-11.7-39.8-17.5-59.6c-0.9-3-1.8-6-2.6-9c-5.5-18.9-11.1-37.7-16.6-56.6c-0.2-0.6-0.4-1.3-0.6-2
		c-0.9-3.1-1.8-6.2-2.7-9.3c-0.3-1.2-0.7-2.3-1-3.5c-0.3-1.2-0.7-2.3-1-3.5c-5.8-19.7-11.6-39.5-17.4-59.2
		c-2.4-8.2-4.9-16.5-7.3-24.7c-0.2-0.7-0.4-1.4-0.6-2.1c-2.3-7.7-4.5-15.5-6.8-23.2c-7.3-25.4-14.9-50.6-22.6-75.9
		c-1.8-5.9-3.6-11.8-5.3-17.6c-4.5-15.1-9.1-30.1-13.7-45.2c-0.5-1.7-0.5-1.7-1-3.4c-1.7-5.5-3.4-11-5.1-16.5c-0.6-2-1.2-4-1.8-6
		c-0.3-0.9-0.6-1.8-0.9-2.8c-0.3-0.8-0.5-1.7-0.8-2.6c-0.2-0.7-0.5-1.5-0.7-2.2C26.9,4.8,26.5,2.4,26,0z"/>
	<path class="st3" d="M531,96c0.3,0,0.7,0,1,0c0.3,38,0.5,76.1,0.6,114.1c0,4.5,0,9,0,13.5c0,0.9,0,1.8,0,2.7
		c0.1,14.5,0.1,28.9,0.3,43.4c0.1,14.9,0.2,29.7,0.2,44.6c0,9.2,0.1,18.3,0.2,27.5c0.1,6.3,0.1,12.6,0.1,18.9c0,3.6,0,7.2,0.1,10.9
		c0.4,22.9,0.4,22.9-4,28.6c-2.8,2.9-6,4.9-9.4,6.9c-1.5,1.4-2.9,2.8-4.3,4.3c-2.4,2.4-4.8,4.7-7.4,6.9c-4.7,4.1-9,8.4-13.3,12.8
		c-8.4,8.6-8.4,8.6-12.9,12.4c-5,4.3-9.5,8.9-14.1,13.6c-9.5,9.6-9.5,9.6-14,13.5c-5.1,4.4-9.8,9.2-14.5,14
		c-5.5,5.5-10.9,11-16.8,16c-2.9,2.5-5.4,5.2-8,8C413,510,413,510,411,510c0.6-5.7,1.7-10.9,3.4-16.3c0.4-1.2,0.4-1.2,0.8-2.5
		c0.6-1.8,1.1-3.6,1.7-5.4c1.6-5.1,3.1-10.2,4.7-15.3c0.3-1.1,0.7-2.2,1-3.4c4.5-14.9,8.9-29.8,13.3-44.7c2-6.9,4.1-13.9,6.1-20.8
		c0.2-0.7,0.4-1.5,0.7-2.2c3.3-11,6.5-22,9.9-33.1c9.4-31,18.1-62.2,26.9-93.4c0.2-0.7,0.4-1.3,0.6-2c2-7.1,4-14.2,6-21.3
		c3.2-11.2,6.3-22.3,9.6-33.4c2.5-8.7,5-17.4,7.3-26.1C511.4,158.4,520.6,127,531,96z"/>
	<path class="st3" d="M0,96c2,3,2.9,5.3,4,8.7c0.4,1.1,0.7,2.3,1.1,3.5c0.4,1.2,0.8,2.5,1.2,3.7c0.2,0.6,0.4,1.3,0.6,1.9
		c3.6,11.3,7,22.7,10.1,34.2c0.3,1.1,0.6,2.2,0.9,3.3c0.3,1.2,0.6,2.4,1,3.6c0.3,1.2,0.7,2.5,1,3.7c0.6,2.3,1.3,4.7,1.9,7
		c2.1,7.6,4.3,15.3,6.5,22.9c3.1,10.6,6.1,21.2,9.1,31.8c5.9,21.1,11.8,42.2,17.8,63.3c0.6,2.1,1.2,4.3,1.8,6.4
		c2.1,7.4,4.2,14.7,6.3,22.1c1.1,3.9,2.2,7.7,3.3,11.6c0.9,3.1,1.8,6.2,2.7,9.3c0.3,1.1,0.6,2.2,0.9,3.3c2.2,7.8,4.6,15.5,7,23.2
		c3.6,11.5,7.1,23.1,10.4,34.7c4.5,15.4,9,30.8,13.6,46.2c3.9,12.9,7.7,25.9,11.5,38.8c1.3,4.5,2.6,8.9,4,13.4
		c0.3,0.9,0.6,1.9,0.9,2.8c0.5,1.8,1.1,3.5,1.6,5.3c1,3.1,1.8,5.8,1.8,9.1c-4.3-0.5-6.3-2.9-9-6c-0.5-1.5-0.5-1.5-1-3
		c-0.6-0.3-1.1-0.6-1.7-0.9c-3.1-1.6-5.2-3.9-7.6-6.3c-0.8-0.8-0.8-0.8-1.5-1.6c-1.6-1.6-3.2-3.3-4.9-4.9c-2.1-2.2-4.2-4.3-6.4-6.4
		c-0.5-0.5-1-1-1.6-1.6c-3.3-3.4-6.8-6.5-10.4-9.6c-4.6-4.1-8.9-8.6-13.2-13c-3.4-3.5-6.9-6.9-10.6-10c-5.8-5-11.2-10.6-16.6-16.1
		c-5.1-5.2-10.2-10.2-15.7-14.9c-3.2-2.8-6.1-5.8-9-8.8c-1.2-1.2-2.4-2.4-3.5-3.6c-0.5-0.5-1-1-1.5-1.6c-1.7-1.8-1.7-1.8-4.3-3
		c-3.9-4.3-3.1-8.9-3-14.5c0-1.2,0-2.5,0-3.7c0-3.4,0-6.8,0-10.2c0-3.7,0-7.4,0-11c0-6.4,0-12.7,0-19.1c0-9.2,0.1-18.4,0.1-27.6
		c0-14.9,0-29.9,0.1-44.8c0-14.5,0.1-29,0.1-43.6c0-0.9,0-1.8,0-2.7c0-4.5,0-9,0-13.5C-0.2,170.5-0.1,133.3,0,96z"/>
</g>
<g id="Layer_3">
	<polygon class="st4" points="196.9,96.7 196.9,178.9 268.1,220 339.3,178.9 339.3,96.7 268.1,55.6 	"/>
	<polygon class="st5" points="311.7,163 311.7,112.6 268.1,87.4 224.5,112.6 224.5,163 268.1,188.2 	"/>
</g>
<g id="Layer_4">
</g>
<g id="Layer_5">
	<line class="st4" x1="268.1" y1="55.6" x2="268.1" y2="137.8"/>
	<line class="st4" x1="196.9" y1="96.7" x2="268.1" y2="137.8"/>
	<line class="st4" x1="339.3" y1="96.7" x2="268.1" y2="137.8"/>
	<line class="st4" x1="196.9" y1="178.9" x2="268.1" y2="137.8"/>
	<line class="st4" x1="268.1" y1="220" x2="268.1" y2="137.8"/>
	<line class="st4" x1="339.3" y1="178.9" x2="268.1" y2="137.8"/>
</g>
<g id="Layer_2" class="st0">
	<path class="st6" d="M206.4,100.1c39.6,0,79.2,0,120,0c-1.3,5.8-2.6,11.2-4.5,16.8c-0.2,0.7-0.5,1.4-0.7,2.2
		c-0.8,2.3-1.6,4.6-2.3,6.9c-0.5,1.6-1.1,3.2-1.6,4.8c-0.8,2.4-1.6,4.8-2.4,7.3c-1.7,5.1-3.4,10.2-5.1,15.3
		c-0.4,1.2-0.8,2.5-1.2,3.8c-0.8,2.3-1.5,4.6-2.3,6.9c-0.3,1-0.7,2-1,3.1c-0.3,0.9-0.6,1.8-0.9,2.7c-0.9,2.2-0.9,2.2-2.9,5.2
		c-2.9,0.4-2.9,0.4-6.7,0.3c-0.7,0-1.4,0-2.1,0c-2.3,0-4.5,0-6.8,0c-1.6,0-3.1,0-4.7,0c-4.1,0-8.3,0-12.4-0.1c-4.2,0-8.4,0-12.6-0.1
		c-8.3,0-16.5-0.1-24.8-0.1c-2.5-5.3-4.7-10.7-6.5-16.3c-0.2-0.7-0.4-1.3-0.7-2c-0.7-2.1-1.4-4.2-2.1-6.3c-0.5-1.5-1-2.9-1.5-4.4
		c-0.7-2.2-1.5-4.4-2.2-6.7c-1.5-4.5-3-9-4.5-13.6c-0.4-1.1-0.7-2.2-1.1-3.3c-0.7-2-1.3-3.9-2-5.9c-0.3-0.9-0.6-1.8-0.9-2.7
		c-0.3-0.7-0.5-1.5-0.8-2.3C208.1,108,207.3,104,206.4,100.1z"/>
</g>
</svg>
